<?xml version="1.0" encoding="UTF-8" standalone="no"?>
<svg
   xmlns:dc="http://purl.org/dc/elements/1.1/"
   xmlns:cc="http://creativecommons.org/ns#"
   xmlns:rdf="http://www.w3.org/1999/02/22-rdf-syntax-ns#"
   xmlns:svg="http://www.w3.org/2000/svg"
   xmlns="http://www.w3.org/2000/svg"
   xmlns:sodipodi="http://sodipodi.sourceforge.net/DTD/sodipodi-0.dtd"
   xmlns:inkscape="http://www.inkscape.org/namespaces/inkscape"
   id="Discord-Logo"
   viewBox="0 0 1120.0832 99.821266"
   version="1.1"
   sodipodi:docname="Discord-Logo-Blurple.svg"
   width="1120.0831"
   height="99.821266"
   inkscape:version="1.0.2 (e86c8708, 2021-01-15)">
  <metadata
     id="metadata841">
    <rdf:RDF>
      <cc:Work
         rdf:about="">
        <dc:format>image/svg+xml</dc:format>
        <dc:type
           rdf:resource="http://purl.org/dc/dcmitype/StillImage" />
        <dc:title></dc:title>
      </cc:Work>
    </rdf:RDF>
  </metadata>
  <sodipodi:namedview
     pagecolor="#ffffff"
     bordercolor="#666666"
     borderopacity="1"
     objecttolerance="10"
     gridtolerance="10"
     guidetolerance="10"
     inkscape:pageopacity="0"
     inkscape:pageshadow="2"
     inkscape:window-width="1380"
     inkscape:window-height="847"
     id="namedview839"
     showgrid="false"
     showguides="true"
     inkscape:guide-bbox="true"
     fit-margin-top="0"
     fit-margin-left="0"
     fit-margin-right="0"
     fit-margin-bottom="0"
     inkscape:zoom="0.97276418"
     inkscape:cx="616.20638"
     inkscape:cy="3.7960696"
     inkscape:window-x="60"
     inkscape:window-y="25"
     inkscape:window-maximized="0"
     inkscape:current-layer="Discord-Logo" />
  <defs
     id="defs835">
    <style
       id="style833">.cls-1{fill:#5865f2;}</style>
  </defs>
  <g
     id="g973">
    <text
       xml:space="preserve"
       style="font-size:97.3418px;line-height:1.25;font-family:sans-serif;stroke-width:3.65032"
       x="639.11731"
       y="81.326324"
       id="text845"><tspan
         sodipodi:role="line"
         id="tspan843"
         x="639.11731"
         y="81.326324"
         style="font-style:normal;font-variant:normal;font-weight:normal;font-stretch:normal;font-size:97.3418px;font-family:'ABC Ginto Discord Nord';-inkscape-font-specification:'ABC Ginto Discord Nord, Normal';font-variant-ligatures:normal;font-variant-caps:normal;font-variant-numeric:normal;font-variant-east-asian:normal;stroke-width:3.65032">Scraper</tspan></text>
    <path
       id="path938"
       class="cls-1"
       d="M 81.15,0 C 79.9124,2.1973 78.8011,4.4704 77.7909,6.794 68.1934,5.3544 58.4191,5.3544 48.7964,6.794 47.8114,4.4704 46.6748,2.1973 45.4373,0 36.4207,1.5407 27.6314,4.2431 19.2968,8.0568 2.779,32.5304 -1.6914,56.3725 0.5312,79.8863 c 9.6732,7.1476 20.5083,12.603 32.0505,16.0884 2.6014,-3.4854 4.8998,-7.1981 6.8698,-11.0623 -3.738,-1.3891 -7.3497,-3.1318 -10.8098,-5.1523 0.9092,-0.6567 1.7932,-1.3386 2.6519,-1.9953 20.281,9.547 43.7696,9.547 64.0758,0 0.8587,0.7072 1.7427,1.3891 2.6519,1.9953 -3.4601,2.0457 -7.0718,3.7632 -10.835,5.1776 1.97,3.8642 4.2683,7.5769 6.8698,11.0623 C 105.598,92.5146 116.433,87.0844 126.107,79.9369 128.733,52.6598 121.611,29.0197 107.29,8.0821 98.9811,4.2684 90.1918,1.5659 81.1752,0.0505 Z M 42.2802,65.4144 c -6.2383,0 -11.4159,-5.6575 -11.4159,-12.6535 0,-6.996 4.9755,-12.6788 11.3907,-12.6788 6.4152,0 11.5169,5.708 11.4159,12.6788 -0.101,6.9708 -5.026,12.6535 -11.3907,12.6535 z m 42.0774,0 c -6.2637,0 -11.3907,-5.6575 -11.3907,-12.6535 0,-6.996 4.9755,-12.6788 11.3907,-12.6788 6.4152,0 11.4917,5.708 11.3906,12.6788 -0.101,6.9708 -5.026,12.6535 -11.3906,12.6535 z m 84.4821,-52.1 h 37.696 c 9.0857,0 16.7722,1.4176 23.0594,4.2529 5.7886,2.4336 10.7039,6.5642 14.098,11.8473 3.1773,5.219 4.8055,11.2338 4.6947,17.3429 0.0698,6.1372 -1.6218,12.1656 -4.8743,17.3705 -3.6281,5.4984 -8.8163,9.7874 -14.8989,12.3168 -6.6647,3.0378 -14.9265,4.5521 -24.7854,4.5428 H 168.8396 V 13.3144 Z m 34.6029,50.4546 c 6.1216,0 10.8255,-1.5281 14.1118,-4.5843 3.3712,-3.2692 4.9505,-7.7222 4.9295,-12.5239 0.018,-4.4454 -1.3802,-8.5919 -4.3909,-11.7368 -2.9457,-2.9273 -7.3781,-4.3956 -13.2972,-4.4048 H 193.0037 V 63.769 Z m 101.3925,17.1082 c -4.9731,-1.2461 -9.7304,-3.2338 -14.1118,-5.896 V 58.9363 c 3.8252,2.7822 8.1322,4.8327 12.7034,6.0479 5.0007,1.5258 10.1955,2.321 15.4236,2.3612 1.8044,0.0963 3.6072,-0.2152 5.2747,-0.9113 1.1875,-0.6076 1.7812,-1.3808 1.7812,-2.1817 0.0257,-0.9045 -0.3242,-1.7792 -0.9666,-2.4164 -1.1029,-0.8483 -2.3974,-1.4125 -3.7696,-1.6432 l -11.5987,-2.6097 c -6.6463,-1.5465 -11.364,-3.6868 -14.1532,-6.4207 -2.831,-2.8554 -4.3338,-6.7677 -4.1424,-10.7841 -0.0466,-3.6001 1.2648,-7.0857 3.6729,-9.7623 2.8551,-3.0202 6.4556,-5.2348 10.4389,-6.4207 5.126,-1.6112 10.4794,-2.3806 15.8516,-2.2783 5.015,-0.0471 10.0161,0.5374 14.885,1.7398 3.9328,0.9318 7.7095,2.4295 11.2121,4.4462 v 15.1888 c -3.2847,-1.9057 -6.8158,-3.3506 -10.4941,-4.2943 -3.9853,-1.0686 -8.0941,-1.6071 -12.2201,-1.6017 -6.0571,0 -9.0857,1.031 -9.0857,3.093 -0.0206,0.9388 0.5235,1.7985 1.3808,2.1817 1.6549,0.7036 3.3889,1.2044 5.1642,1.4913 l 9.6656,1.7398 c 6.2781,1.1046 10.959,3.0378 14.0428,5.7994 3.0838,2.7616 4.6303,6.8028 4.6395,12.1235 0.0999,5.6933 -2.8276,11.0123 -7.6911,13.9737 -5.0905,3.4152 -12.3582,5.1182 -21.8029,5.109 -5.4311,0.0084 -10.8411,-0.6737 -16.1002,-2.0298 z m 68.4326,-2.0298 c -5.1675,-2.3744 -9.5228,-6.2159 -12.5239,-11.0464 -2.7994,-4.7371 -4.2331,-10.1566 -4.1424,-15.6583 -0.0834,-5.4984 1.4273,-10.9033 4.3495,-15.5617 3.1147,-4.7547 7.5487,-8.4976 12.7586,-10.7703 6.3346,-2.7602 13.197,-4.0987 20.1045,-3.9215 9.6656,0 17.6881,2.0298 24.0674,6.0893 v 17.7157 c -2.4269,-1.6315 -5.0782,-2.9013 -7.8706,-3.7696 -3.126,-0.9868 -6.3877,-1.4761 -9.6656,-1.4498 -5.9927,0 -10.6828,1.0954 -14.0704,3.2863 -4.7612,2.6573 -6.4668,8.6712 -3.8095,13.4324 0.8658,1.5513 2.1342,2.8403 3.6714,3.731 3.2863,2.2185 8.0547,3.3277 14.3051,3.3277 3.2263,0.0077 6.4362,-0.4575 9.5275,-1.3808 2.8197,-0.8085 5.5283,-1.9634 8.0639,-3.4382 v 17.122 c -7.4714,4.3561 -16.0008,6.5637 -24.6474,6.3793 -6.9299,0.1891 -13.8114,-1.2089 -20.1182,-4.0872 z m 68.6813,0 c -5.2255,-2.3861 -9.6579,-6.2195 -12.7724,-11.0464 -2.9351,-4.7259 -4.4585,-10.1922 -4.3909,-15.755 -0.0938,-5.4969 1.4334,-10.8997 4.3909,-15.5341 3.131,-4.7042 7.5442,-8.413 12.7172,-10.6874 12.7067,-5.1553 26.9224,-5.1553 39.6291,0 5.1526,2.2571 9.5478,5.9477 12.662,10.6322 2.9377,4.6515 4.4496,10.0611 4.3495,15.5617 0.0686,5.5572 -1.4396,11.02 -4.3495,15.755 -3.0805,4.8302 -7.4922,8.6665 -12.7034,11.0464 -12.6216,5.4128 -26.9108,5.4128 -39.5324,0 v 0.0276 z m 29.3697,-17.1496 c 2.4137,-2.4917 3.6925,-5.8688 3.5349,-9.3342 0.1688,-3.4345 -1.114,-6.7817 -3.5349,-9.2238 -2.6241,-2.4065 -6.1113,-3.6469 -9.6656,-3.4382 -3.5512,-0.1868 -7.0301,1.0508 -9.6656,3.4382 -2.4114,2.4472 -3.6883,5.7922 -3.521,9.2238 -0.1564,3.4627 1.1166,6.8376 3.521,9.3342 2.6107,2.4366 6.0995,3.7075 9.6656,3.521 3.5693,0.2077 7.0662,-1.0662 9.6656,-3.521 z m 85.306,-36.2323 v 20.9054 c -2.8855,-1.7219 -6.2118,-2.5619 -9.569,-2.4164 -5.1504,0 -9.1271,1.5741 -11.8887,4.6947 -2.7616,3.1206 -4.1424,7.9672 -4.1424,14.5399 v 17.7848 h -23.6808 v -56.544 h 23.1975 v 17.9505 c 1.2887,-6.5726 3.3692,-11.4193 6.2412,-14.5399 2.818,-3.1056 6.9108,-4.7373 11.0464,-4.6947 3.0644,-0.0065 6.1462,0.7207 8.7958,2.3197 z M 635.303,11.3813 V 80.9738 H 611.6222 V 68.2704 c -1.7859,4.5225 -4.9942,8.3415 -9.1409,10.8807 -4.5777,2.6081 -9.7844,3.9073 -15.0508,3.7558 -4.9558,0.1154 -9.834,-1.2448 -14.0152,-3.9077 -4.0491,-2.6304 -7.2746,-6.3488 -9.3066,-10.7288 -2.2171,-4.8348 -3.3213,-10.1054 -3.2311,-15.4236 -0.156,-5.514 1.0186,-10.9844 3.4244,-15.9483 2.2114,-4.5467 5.6625,-8.3759 9.9556,-11.0464 4.4131,-2.6736 9.4912,-4.0472 14.6503,-3.9629 11.2674,0 18.8387,4.8973 22.7142,14.6918 V 11.3813 h 23.6808 z m -27.1605,49.9851 c 2.4403,-2.4019 3.7583,-5.7192 3.6315,-9.1409 0.1037,-3.3205 -1.218,-6.5267 -3.6315,-8.8095 -5.5847,-4.5468 -13.5947,-4.5468 -19.1794,0 -2.4067,2.3349 -3.707,5.5831 -3.5763,8.9338 -0.1227,3.3818 1.1916,6.6575 3.6177,9.0167 2.5628,2.3823 5.9772,3.6316 9.4723,3.4658 3.5576,0.1965 7.0435,-1.0534 9.6656,-3.4658 z M 268.3542,9.2411 c 6.5202,0 11.8059,4.7478 11.8059,10.6046 0,5.8568 -5.2857,10.6046 -11.8059,10.6046 -6.5202,0 -11.8059,-4.7478 -11.8059,-10.6046 0,-5.8568 5.2857,-10.6046 11.8059,-10.6046 z m -11.8197,28.5136 c 7.5551,3.1753 16.0705,3.1753 23.6256,0 v 43.5229 h -23.6256 z" />
  </g>
</svg>
