<?xml version="1.0" encoding="UTF-8" standalone="no"?>
<svg
   xmlns:dc="http://purl.org/dc/elements/1.1/"
   xmlns:cc="http://creativecommons.org/ns#"
   xmlns:rdf="http://www.w3.org/1999/02/22-rdf-syntax-ns#"
   xmlns:svg="http://www.w3.org/2000/svg"
   xmlns="http://www.w3.org/2000/svg"
   xmlns:sodipodi="http://sodipodi.sourceforge.net/DTD/sodipodi-0.dtd"
   xmlns:inkscape="http://www.inkscape.org/namespaces/inkscape"
   id="Discord-Logo"
   viewBox="0 0 1120.0832 99.821266"
   version="1.1"
   sodipodi:docname="ds_logo.svg"
   width="1120.0831"
   height="99.821266"
   inkscape:version="1.0.2 (e86c8708, 2021-01-15)">
  <metadata
     id="metadata841">
    <rdf:RDF>
      <cc:Work
         rdf:about="">
        <dc:format>image/svg+xml</dc:format>
        <dc:type
           rdf:resource="http://purl.org/dc/dcmitype/StillImage" />
        <dc:title />
      </cc:Work>
    </rdf:RDF>
  </metadata>
  <sodipodi:namedview
     pagecolor="#ffffff"
     bordercolor="#666666"
     borderopacity="1"
     objecttolerance="10"
     gridtolerance="10"
     guidetolerance="10"
     inkscape:pageopacity="0"
     inkscape:pageshadow="2"
     inkscape:window-width="1380"
     inkscape:window-height="847"
     id="namedview839"
     showgrid="false"
     showguides="true"
     inkscape:guide-bbox="true"
     fit-margin-top="0"
     fit-margin-left="0"
     fit-margin-right="0"
     fit-margin-bottom="0"
     inkscape:zoom="0.97276418"
     inkscape:cx="779.65812"
     inkscape:cy="-20.875891"
     inkscape:window-x="60"
     inkscape:window-y="25"
     inkscape:window-maximized="0"
     inkscape:current-layer="Discord-Logo"
     inkscape:document-rotation="0" />
  <defs
     id="defs835">
    <style
       id="style833">.cls-1{fill:#5865f2;}</style>
  </defs>
  <g
     id="g870">
    <path
       id="path845"
       style="font-style:normal;font-variant:normal;font-weight:normal;font-stretch:normal;font-size:97.3418px;line-height:1.25;font-family:'ABC Ginto Discord Nord';-inkscape-font-specification:'ABC Ginto Discord Nord, Normal';font-variant-ligatures:normal;font-variant-caps:normal;font-variant-numeric:normal;font-variant-east-asian:normal;stroke-width:3.65032"
       d="M 678.15234 11.240234 C 666.7309 11.240234 658.06556 13.25193 652.16016 17.275391 C 646.25476 21.233957 643.30273 26.556098 643.30273 33.240234 C 643.30273 39.015848 645.18534 43.68666 648.94922 47.255859 C 652.71311 50.760164 658.6191 53.226618 666.66602 54.654297 L 676.39844 56.40625 C 679.77295 57.055195 682.07755 57.770093 683.31055 58.548828 C 684.60843 59.262668 685.25781 60.301278 685.25781 61.664062 C 685.25781 63.156637 684.31553 64.258816 682.43359 64.972656 C 680.61655 65.686496 677.76281 66.042969 673.86914 66.042969 C 668.54779 66.042969 663.29117 65.2645 658.09961 63.707031 C 652.90805 62.149563 648.137 60.008773 643.78906 57.283203 L 643.78906 74.902344 C 647.94231 77.498125 652.80969 79.542582 658.39062 81.035156 C 664.03644 82.52773 670.1043 83.273438 676.59375 83.273438 C 683.40768 83.273438 689.37724 82.333113 694.50391 80.451172 C 699.69547 78.504336 703.71887 75.777742 706.57422 72.273438 C 709.42958 68.769133 710.85742 64.680218 710.85742 60.007812 C 710.85742 53.907727 708.97677 49.204153 705.21289 45.894531 C 701.44901 42.520016 695.57578 40.182656 687.59375 38.884766 L 676.69141 37.132812 C 673.57647 36.613656 671.46649 36.095328 670.36328 35.576172 C 669.26007 34.992121 668.70898 34.148129 668.70898 33.044922 C 668.70898 30.319352 672.89423 28.957031 681.26562 28.957031 C 686.45718 28.957031 691.2918 29.540883 695.76953 30.708984 C 700.24725 31.877086 703.91417 33.272168 706.76953 34.894531 L 706.76953 17.957031 C 703.71948 16.07509 699.82519 14.485391 695.08789 13.1875 C 690.35059 11.889609 684.70669 11.240234 678.15234 11.240234 z M 754.12891 22.433594 C 746.27667 22.433594 739.52864 23.765105 733.88281 26.425781 C 728.23699 29.021563 723.95346 32.590195 721.0332 37.132812 C 718.11295 41.675429 716.65234 46.835715 716.65234 52.611328 C 716.65234 58.386941 718.08019 63.610796 720.93555 68.283203 C 723.79091 72.890714 727.97811 76.555679 733.49414 79.28125 C 739.07507 81.941925 745.8231 83.273438 753.74023 83.273438 C 763.21483 83.273438 771.48899 81.163456 778.5625 76.945312 L 778.5625 59.716797 C 776.29119 61.079582 773.56655 62.214524 770.38672 63.123047 C 767.27179 64.031571 764.09043 64.486328 760.8457 64.486328 C 754.55093 64.486328 749.74907 63.382195 746.43945 61.175781 C 743.12983 58.969367 741.47461 56.179203 741.47461 52.804688 C 741.47461 49.365278 743.1626 46.575114 746.53711 44.433594 C 749.97652 42.22718 754.71285 41.125 760.74805 41.125 C 764.18745 41.125 767.43238 41.610566 770.48242 42.583984 C 773.53246 43.557402 776.16077 44.790628 778.36719 46.283203 L 778.36719 28.470703 C 771.94263 24.447242 763.86309 22.433594 754.12891 22.433594 z M 869.91992 22.433594 C 859.4719 22.433594 850.55032 24.96557 843.15234 30.027344 L 843.15234 47.839844 C 845.81302 45.568535 848.76504 43.849742 852.00977 42.681641 C 855.25449 41.448645 858.62851 40.832031 862.13281 40.832031 C 867.38927 40.832031 871.6728 41.936164 874.98242 44.142578 C 878.35694 46.348992 880.2723 49.528391 880.72656 53.681641 C 878.52015 51.085859 875.95541 49.203258 873.03516 48.035156 C 870.1798 46.80216 866.70945 46.185547 862.62109 46.185547 C 858.07847 46.185547 854.11865 46.964016 850.74414 48.521484 C 847.43452 50.078953 844.87173 52.285266 843.05469 55.140625 C 841.30253 57.93109 840.42578 61.14325 840.42578 64.777344 C 840.42578 68.281648 841.23702 71.463 842.85938 74.318359 C 844.54663 77.108824 846.94756 79.315137 850.0625 80.9375 C 853.24233 82.494969 856.97478 83.273438 861.25781 83.273438 C 870.21326 83.273438 876.76667 80.255894 880.91992 74.220703 L 880.91992 81.326172 L 903.99023 81.326172 L 903.99023 53.291016 C 903.99023 43.297258 901.07098 35.672472 895.23047 30.416016 C 889.38996 25.094664 880.952 22.433594 869.91992 22.433594 z M 962.1543 22.433594 C 955.72974 22.433594 950.44036 23.830628 946.28711 26.621094 C 942.19876 29.346664 939.34307 33.304531 937.7207 38.496094 L 937.7207 24.380859 L 913.96875 24.380859 L 913.96875 99.820312 L 937.7207 99.820312 L 937.7207 69.839844 C 942.00374 78.795289 949.92143 83.273438 961.47266 83.273438 C 966.79401 83.273437 971.53035 81.974687 975.68359 79.378906 C 979.83685 76.783125 983.04901 73.148969 985.32031 68.476562 C 987.65651 63.804157 988.82617 58.451207 988.82617 52.416016 C 988.82617 46.640402 987.72204 41.480117 985.51562 36.9375 C 983.3741 32.394883 980.29104 28.859012 976.26758 26.328125 C 972.24412 23.732344 967.54054 22.433594 962.1543 22.433594 z M 1029.4668 22.433594 C 1022.1987 22.433594 1015.9034 23.699582 1010.582 26.230469 C 1005.3256 28.696461 1001.2694 32.168762 998.41406 36.646484 C 995.6236 41.124207 994.22852 46.25173 994.22852 52.027344 C 994.22852 58.12743 995.75464 63.545902 998.80469 68.283203 C 1001.9196 73.020504 1006.365 76.71823 1012.1406 79.378906 C 1017.9162 81.974687 1024.7298 83.273438 1032.582 83.273438 C 1037.9034 83.273438 1042.9654 82.624063 1047.7676 81.326172 C 1052.6346 80.093176 1056.6908 78.405191 1059.9355 76.263672 L 1059.9355 59.423828 C 1056.7557 61.370664 1053.4453 62.83127 1050.0059 63.804688 C 1046.6313 64.778106 1042.8681 65.265625 1038.7148 65.265625 C 1033.4584 65.265625 1029.1093 64.550727 1025.6699 63.123047 C 1022.2305 61.695368 1019.7968 59.683672 1018.3691 57.087891 L 1061.8828 57.087891 L 1061.8828 50.566406 C 1061.8828 41.675855 1059.1563 34.764015 1053.7051 29.832031 C 1048.2539 24.900047 1040.1744 22.433594 1029.4668 22.433594 z M 828.51562 23.115234 C 823.97301 23.115234 820.24057 24.704934 817.32031 27.884766 C 814.46495 30.999703 812.38969 35.867085 811.0918 42.486328 L 811.0918 24.380859 L 787.72852 24.380859 L 787.72852 81.326172 L 811.57812 81.326172 L 811.57812 63.416016 C 811.57812 56.796774 812.97321 51.929391 815.76367 48.814453 C 818.55413 45.634621 822.54476 44.044922 827.73633 44.044922 C 831.69489 44.044922 834.90705 44.856152 837.37305 46.478516 L 837.37305 25.451172 C 834.90705 23.893703 831.95504 23.115234 828.51562 23.115234 z M 1111.2246 23.115234 C 1106.682 23.115234 1102.9515 24.704934 1100.0312 27.884766 C 1097.1759 30.999703 1095.0987 35.867085 1093.8008 42.486328 L 1093.8008 24.380859 L 1070.4395 24.380859 L 1070.4395 81.326172 L 1094.2871 81.326172 L 1094.2871 63.416016 C 1094.2871 56.796774 1095.6823 51.929391 1098.4727 48.814453 C 1101.2631 45.634621 1105.2557 44.044922 1110.4473 44.044922 C 1114.4058 44.044922 1117.618 44.856152 1120.084 46.478516 L 1120.084 25.451172 C 1117.618 23.893703 1114.664 23.115234 1111.2246 23.115234 z M 1030.6348 38.884766 C 1034.0742 38.884766 1036.8008 39.566902 1038.8125 40.929688 C 1040.8892 42.227578 1042.1859 44.140988 1042.7051 46.671875 L 1017.7852 46.671875 C 1018.499 44.270777 1019.9596 42.390128 1022.166 41.027344 C 1024.3724 39.599664 1027.1954 38.884766 1030.6348 38.884766 z M 950.86133 40.052734 C 954.81989 40.052734 958.00124 41.222391 960.40234 43.558594 C 962.80344 45.894797 964.00391 48.879578 964.00391 52.513672 C 964.00391 56.21266 962.77068 59.230203 960.30469 61.566406 C 957.90359 63.902609 954.69143 65.070312 950.66797 65.070312 C 946.64451 65.070312 943.46316 63.935371 941.12695 61.664062 C 938.79075 59.392754 937.62305 56.40602 937.62305 52.707031 C 937.62305 49.008043 938.82352 45.9905 941.22461 43.654297 C 943.62571 41.2532 946.83787 40.052734 950.86133 40.052734 z M 870.99219 56.990234 C 873.97734 56.990234 876.37827 57.574085 878.19531 58.742188 C 880.01236 59.910289 880.91992 61.436418 880.91992 63.318359 C 880.91992 65.265195 879.9796 66.854895 878.09766 68.087891 C 876.28061 69.255992 873.87968 69.839844 870.89453 69.839844 C 868.23386 69.839844 866.09112 69.255992 864.46875 68.087891 C 862.91128 66.919789 862.13281 65.362852 862.13281 63.416016 C 862.13281 61.46918 862.91128 59.910289 864.46875 58.742188 C 866.09112 57.574085 868.26662 56.990234 870.99219 56.990234 z " />
    <path
       id="path938"
       class="cls-1"
       d="M 81.15,0 C 79.9124,2.1973 78.8011,4.4704 77.7909,6.794 68.1934,5.3544 58.4191,5.3544 48.7964,6.794 47.8114,4.4704 46.6748,2.1973 45.4373,0 36.4207,1.5407 27.6314,4.2431 19.2968,8.0568 2.779,32.5304 -1.6914,56.3725 0.5312,79.8863 c 9.6732,7.1476 20.5083,12.603 32.0505,16.0884 2.6014,-3.4854 4.8998,-7.1981 6.8698,-11.0623 -3.738,-1.3891 -7.3497,-3.1318 -10.8098,-5.1523 0.9092,-0.6567 1.7932,-1.3386 2.6519,-1.9953 20.281,9.547 43.7696,9.547 64.0758,0 0.8587,0.7072 1.7427,1.3891 2.6519,1.9953 -3.4601,2.0457 -7.0718,3.7632 -10.835,5.1776 1.97,3.8642 4.2683,7.5769 6.8698,11.0623 C 105.598,92.5146 116.433,87.0844 126.107,79.9369 128.733,52.6598 121.611,29.0197 107.29,8.0821 98.9811,4.2684 90.1918,1.5659 81.1752,0.0505 Z M 42.2802,65.4144 c -6.2383,0 -11.4159,-5.6575 -11.4159,-12.6535 0,-6.996 4.9755,-12.6788 11.3907,-12.6788 6.4152,0 11.5169,5.708 11.4159,12.6788 -0.101,6.9708 -5.026,12.6535 -11.3907,12.6535 z m 42.0774,0 c -6.2637,0 -11.3907,-5.6575 -11.3907,-12.6535 0,-6.996 4.9755,-12.6788 11.3907,-12.6788 6.4152,0 11.4917,5.708 11.3906,12.6788 -0.101,6.9708 -5.026,12.6535 -11.3906,12.6535 z m 84.4821,-52.1 h 37.696 c 9.0857,0 16.7722,1.4176 23.0594,4.2529 5.7886,2.4336 10.7039,6.5642 14.098,11.8473 3.1773,5.219 4.8055,11.2338 4.6947,17.3429 0.0698,6.1372 -1.6218,12.1656 -4.8743,17.3705 -3.6281,5.4984 -8.8163,9.7874 -14.8989,12.3168 -6.6647,3.0378 -14.9265,4.5521 -24.7854,4.5428 H 168.8396 V 13.3144 Z m 34.6029,50.4546 c 6.1216,0 10.8255,-1.5281 14.1118,-4.5843 3.3712,-3.2692 4.9505,-7.7222 4.9295,-12.5239 0.018,-4.4454 -1.3802,-8.5919 -4.3909,-11.7368 -2.9457,-2.9273 -7.3781,-4.3956 -13.2972,-4.4048 H 193.0037 V 63.769 Z m 101.3925,17.1082 c -4.9731,-1.2461 -9.7304,-3.2338 -14.1118,-5.896 V 58.9363 c 3.8252,2.7822 8.1322,4.8327 12.7034,6.0479 5.0007,1.5258 10.1955,2.321 15.4236,2.3612 1.8044,0.0963 3.6072,-0.2152 5.2747,-0.9113 1.1875,-0.6076 1.7812,-1.3808 1.7812,-2.1817 0.0257,-0.9045 -0.3242,-1.7792 -0.9666,-2.4164 -1.1029,-0.8483 -2.3974,-1.4125 -3.7696,-1.6432 l -11.5987,-2.6097 c -6.6463,-1.5465 -11.364,-3.6868 -14.1532,-6.4207 -2.831,-2.8554 -4.3338,-6.7677 -4.1424,-10.7841 -0.0466,-3.6001 1.2648,-7.0857 3.6729,-9.7623 2.8551,-3.0202 6.4556,-5.2348 10.4389,-6.4207 5.126,-1.6112 10.4794,-2.3806 15.8516,-2.2783 5.015,-0.0471 10.0161,0.5374 14.885,1.7398 3.9328,0.9318 7.7095,2.4295 11.2121,4.4462 v 15.1888 c -3.2847,-1.9057 -6.8158,-3.3506 -10.4941,-4.2943 -3.9853,-1.0686 -8.0941,-1.6071 -12.2201,-1.6017 -6.0571,0 -9.0857,1.031 -9.0857,3.093 -0.0206,0.9388 0.5235,1.7985 1.3808,2.1817 1.6549,0.7036 3.3889,1.2044 5.1642,1.4913 l 9.6656,1.7398 c 6.2781,1.1046 10.959,3.0378 14.0428,5.7994 3.0838,2.7616 4.6303,6.8028 4.6395,12.1235 0.0999,5.6933 -2.8276,11.0123 -7.6911,13.9737 -5.0905,3.4152 -12.3582,5.1182 -21.8029,5.109 -5.4311,0.0084 -10.8411,-0.6737 -16.1002,-2.0298 z m 68.4326,-2.0298 c -5.1675,-2.3744 -9.5228,-6.2159 -12.5239,-11.0464 -2.7994,-4.7371 -4.2331,-10.1566 -4.1424,-15.6583 -0.0834,-5.4984 1.4273,-10.9033 4.3495,-15.5617 3.1147,-4.7547 7.5487,-8.4976 12.7586,-10.7703 6.3346,-2.7602 13.197,-4.0987 20.1045,-3.9215 9.6656,0 17.6881,2.0298 24.0674,6.0893 v 17.7157 c -2.4269,-1.6315 -5.0782,-2.9013 -7.8706,-3.7696 -3.126,-0.9868 -6.3877,-1.4761 -9.6656,-1.4498 -5.9927,0 -10.6828,1.0954 -14.0704,3.2863 -4.7612,2.6573 -6.4668,8.6712 -3.8095,13.4324 0.8658,1.5513 2.1342,2.8403 3.6714,3.731 3.2863,2.2185 8.0547,3.3277 14.3051,3.3277 3.2263,0.0077 6.4362,-0.4575 9.5275,-1.3808 2.8197,-0.8085 5.5283,-1.9634 8.0639,-3.4382 v 17.122 c -7.4714,4.3561 -16.0008,6.5637 -24.6474,6.3793 -6.9299,0.1891 -13.8114,-1.2089 -20.1182,-4.0872 z m 68.6813,0 c -5.2255,-2.3861 -9.6579,-6.2195 -12.7724,-11.0464 -2.9351,-4.7259 -4.4585,-10.1922 -4.3909,-15.755 -0.0938,-5.4969 1.4334,-10.8997 4.3909,-15.5341 3.131,-4.7042 7.5442,-8.413 12.7172,-10.6874 12.7067,-5.1553 26.9224,-5.1553 39.6291,0 5.1526,2.2571 9.5478,5.9477 12.662,10.6322 2.9377,4.6515 4.4496,10.0611 4.3495,15.5617 0.0686,5.5572 -1.4396,11.02 -4.3495,15.755 -3.0805,4.8302 -7.4922,8.6665 -12.7034,11.0464 -12.6216,5.4128 -26.9108,5.4128 -39.5324,0 v 0.0276 z m 29.3697,-17.1496 c 2.4137,-2.4917 3.6925,-5.8688 3.5349,-9.3342 0.1688,-3.4345 -1.114,-6.7817 -3.5349,-9.2238 -2.6241,-2.4065 -6.1113,-3.6469 -9.6656,-3.4382 -3.5512,-0.1868 -7.0301,1.0508 -9.6656,3.4382 -2.4114,2.4472 -3.6883,5.7922 -3.521,9.2238 -0.1564,3.4627 1.1166,6.8376 3.521,9.3342 2.6107,2.4366 6.0995,3.7075 9.6656,3.521 3.5693,0.2077 7.0662,-1.0662 9.6656,-3.521 z m 85.306,-36.2323 v 20.9054 c -2.8855,-1.7219 -6.2118,-2.5619 -9.569,-2.4164 -5.1504,0 -9.1271,1.5741 -11.8887,4.6947 -2.7616,3.1206 -4.1424,7.9672 -4.1424,14.5399 v 17.7848 h -23.6808 v -56.544 h 23.1975 v 17.9505 c 1.2887,-6.5726 3.3692,-11.4193 6.2412,-14.5399 2.818,-3.1056 6.9108,-4.7373 11.0464,-4.6947 3.0644,-0.0065 6.1462,0.7207 8.7958,2.3197 z M 635.303,11.3813 V 80.9738 H 611.6222 V 68.2704 c -1.7859,4.5225 -4.9942,8.3415 -9.1409,10.8807 -4.5777,2.6081 -9.7844,3.9073 -15.0508,3.7558 -4.9558,0.1154 -9.834,-1.2448 -14.0152,-3.9077 -4.0491,-2.6304 -7.2746,-6.3488 -9.3066,-10.7288 -2.2171,-4.8348 -3.3213,-10.1054 -3.2311,-15.4236 -0.156,-5.514 1.0186,-10.9844 3.4244,-15.9483 2.2114,-4.5467 5.6625,-8.3759 9.9556,-11.0464 4.4131,-2.6736 9.4912,-4.0472 14.6503,-3.9629 11.2674,0 18.8387,4.8973 22.7142,14.6918 V 11.3813 h 23.6808 z m -27.1605,49.9851 c 2.4403,-2.4019 3.7583,-5.7192 3.6315,-9.1409 0.1037,-3.3205 -1.218,-6.5267 -3.6315,-8.8095 -5.5847,-4.5468 -13.5947,-4.5468 -19.1794,0 -2.4067,2.3349 -3.707,5.5831 -3.5763,8.9338 -0.1227,3.3818 1.1916,6.6575 3.6177,9.0167 2.5628,2.3823 5.9772,3.6316 9.4723,3.4658 3.5576,0.1965 7.0435,-1.0534 9.6656,-3.4658 z M 268.3542,9.2411 c 6.5202,0 11.8059,4.7478 11.8059,10.6046 0,5.8568 -5.2857,10.6046 -11.8059,10.6046 -6.5202,0 -11.8059,-4.7478 -11.8059,-10.6046 0,-5.8568 5.2857,-10.6046 11.8059,-10.6046 z m -11.8197,28.5136 c 7.5551,3.1753 16.0705,3.1753 23.6256,0 v 43.5229 h -23.6256 z" />
  </g>
</svg>
